<svg width="100%" height="100%" viewBox="0 0 256 256" version="1.1" xmlns="http://www.w3.org/2000/svg" xmlns:xlink="http://www.w3.org/1999/xlink" xml:space="preserve" style="fill-rule:evenodd;clip-rule:evenodd;stroke-linecap:round;stroke-linejoin:round;stroke-miterlimit:1.5;">
    <g transform="matrix(1,0,0,1,-31324.7,-19244.2)">
        <g id="c" transform="matrix(0.133333,0,0,0.237037,31324.7,19244.2)">
            <rect x="0" y="0" width="1920" height="1080" style="fill:none;"/>
            <g transform="matrix(1.00002,0,0,0.99997,-0.0183007,0.0161433)">
                <g transform="matrix(2.30257,0,0,1.29519,-69671.6,-22502.5)">
                    <circle cx="30675.1" cy="17790.8" r="370.805"/>
                </g>
                <g transform="matrix(1.18581,0,0,1.18581,-184.751,-100.339)">
                    <g>
                        <g transform="matrix(1.77778,0,0,1,-53568.2,-17250.8)">
                            <path d="M30694.2,17515.1C30603.5,17534.6 30498.3,17426.5 30372.4,17483.7C30238.9,17544.3 30220.2,17683.4 30226,17894.7C30231.4,18095.6 30371.4,18135.2 30456.5,18129.6C30554.2,18123.3 30589.8,18058.9 30695.4,18047.2C30862.4,18028.8 30929.7,18089.1 31019.3,18031.9C31089.7,17986.9 31130.3,17843.3 31124.7,17727.1C31118.6,17600.7 31062,17483.7 30974.5,17446.4C30883.2,17407.5 30783,17495.9 30694.2,17515.1Z" style="fill:none;stroke:url(#_Linear1);stroke-width:8.54px;"/>
                        </g>
                        <g transform="matrix(1.68801,0,0,0.949505,-50814.5,-16352.8)">
                            <path d="M30694.2,17515.1C30603.5,17534.6 30498.3,17426.5 30372.4,17483.7C30238.9,17544.3 30220.2,17683.4 30226,17894.7C30231.4,18095.6 30371.4,18135.2 30456.5,18129.6C30554.2,18123.3 30589.8,18058.9 30695.4,18047.2C30862.4,18028.8 30929.7,18089.1 31019.3,18031.9C31089.7,17986.9 31130.3,17843.3 31124.7,17727.1C31118.6,17600.7 31062,17483.7 30974.5,17446.4C30883.2,17407.5 30783,17495.9 30694.2,17515.1Z" style="fill:none;stroke:url(#_Linear2);stroke-width:8.99px;"/>
                        </g>
                        <g transform="matrix(1.60277,0,0,0.90156,-48199.9,-15500.2)">
                            <path d="M30694.2,17515.1C30603.5,17534.6 30498.3,17426.5 30372.4,17483.7C30238.9,17544.3 30220.2,17683.4 30226,17894.7C30231.4,18095.6 30371.4,18135.2 30456.5,18129.6C30554.2,18123.3 30589.8,18058.9 30695.4,18047.2C30862.4,18028.8 30929.7,18089.1 31019.3,18031.9C31089.7,17986.9 31130.3,17843.3 31124.7,17727.1C31118.6,17600.7 31062,17483.7 30974.5,17446.4C30883.2,17407.5 30783,17495.9 30694.2,17515.1Z" style="fill:none;stroke:url(#_Linear3);stroke-width:9.47px;"/>
                        </g>
                        <g transform="matrix(1.52184,0,0,0.856035,-45717.3,-14690.6)">
                            <path d="M30694.2,17515.1C30603.5,17534.6 30498.3,17426.5 30372.4,17483.7C30238.9,17544.3 30220.2,17683.4 30226,17894.7C30231.4,18095.6 30371.4,18135.2 30456.5,18129.6C30554.2,18123.3 30589.8,18058.9 30695.4,18047.2C30862.4,18028.8 30929.7,18089.1 31019.3,18031.9C31089.7,17986.9 31130.3,17843.3 31124.7,17727.1C31118.6,17600.7 31062,17483.7 30974.5,17446.4C30883.2,17407.5 30783,17495.9 30694.2,17515.1Z" style="fill:none;stroke:url(#_Linear4);stroke-width:9.97px;"/>
                        </g>
                        <g transform="matrix(1.445,0,0,0.81281,-43360,-13921.9)">
                            <path d="M30694.2,17515.1C30603.5,17534.6 30498.3,17426.5 30372.4,17483.7C30238.9,17544.3 30220.2,17683.4 30226,17894.7C30231.4,18095.6 30371.4,18135.2 30456.5,18129.6C30554.2,18123.3 30589.8,18058.9 30695.4,18047.2C30862.4,18028.8 30929.7,18089.1 31019.3,18031.9C31089.7,17986.9 31130.3,17843.3 31124.7,17727.1C31118.6,17600.7 31062,17483.7 30974.5,17446.4C30883.2,17407.5 30783,17495.9 30694.2,17515.1Z" style="fill:none;stroke:url(#_Linear5);stroke-width:10.5px;"/>
                        </g>
                        <g transform="matrix(1.37203,0,0,0.771767,-41121.8,-13192)">
                            <path d="M30694.2,17515.1C30603.5,17534.6 30498.3,17426.5 30372.4,17483.7C30238.9,17544.3 30220.2,17683.4 30226,17894.7C30231.4,18095.6 30371.4,18135.2 30456.5,18129.6C30554.2,18123.3 30589.8,18058.9 30695.4,18047.2C30862.4,18028.8 30929.7,18089.1 31019.3,18031.9C31089.7,17986.9 31130.3,17843.3 31124.7,17727.1C31118.6,17600.7 31062,17483.7 30974.5,17446.4C30883.2,17407.5 30783,17495.9 30694.2,17515.1Z" style="fill:none;stroke:url(#_Linear6);stroke-width:11.06px;"/>
                        </g>
                        <g transform="matrix(1.30275,0,0,0.732796,-38996.6,-12499)">
                            <path d="M30694.2,17515.1C30603.5,17534.6 30498.3,17426.5 30372.4,17483.7C30238.9,17544.3 30220.2,17683.4 30226,17894.7C30231.4,18095.6 30371.4,18135.2 30456.5,18129.6C30554.2,18123.3 30589.8,18058.9 30695.4,18047.2C30862.4,18028.8 30929.7,18089.1 31019.3,18031.9C31089.7,17986.9 31130.3,17843.3 31124.7,17727.1C31118.6,17600.7 31062,17483.7 30974.5,17446.4C30883.2,17407.5 30783,17495.9 30694.2,17515.1Z" style="fill:none;stroke:url(#_Linear7);stroke-width:11.65px;"/>
                        </g>
                        <g transform="matrix(1.23697,0,0,0.695794,-36978.7,-11841)">
                            <path d="M30694.2,17515.1C30603.5,17534.6 30498.3,17426.5 30372.4,17483.7C30238.9,17544.3 30220.2,17683.4 30226,17894.7C30231.4,18095.6 30371.4,18135.2 30456.5,18129.6C30554.2,18123.3 30589.8,18058.9 30695.4,18047.2C30862.4,18028.8 30929.7,18089.1 31019.3,18031.9C31089.7,17986.9 31130.3,17843.3 31124.7,17727.1C31118.6,17600.7 31062,17483.7 30974.5,17446.4C30883.2,17407.5 30783,17495.9 30694.2,17515.1Z" style="fill:none;stroke:url(#_Linear8);stroke-width:12.27px;"/>
                        </g>
                        <g transform="matrix(1.17451,0,0,0.66066,-35062.7,-11216.2)">
                            <path d="M30694.2,17515.1C30603.5,17534.6 30498.3,17426.5 30372.4,17483.7C30238.9,17544.3 30220.2,17683.4 30226,17894.7C30231.4,18095.6 30371.4,18135.2 30456.5,18129.6C30554.2,18123.3 30589.8,18058.9 30695.4,18047.2C30862.4,18028.8 30929.7,18089.1 31019.3,18031.9C31089.7,17986.9 31130.3,17843.3 31124.7,17727.1C31118.6,17600.7 31062,17483.7 30974.5,17446.4C30883.2,17407.5 30783,17495.9 30694.2,17515.1Z" style="fill:none;stroke:url(#_Linear9);stroke-width:12.92px;"/>
                        </g>
                        <g transform="matrix(1.1152,0,0,0.6273,-33243.5,-10622.9)">
                            <path d="M30694.2,17515.1C30603.5,17534.6 30498.3,17426.5 30372.4,17483.7C30238.9,17544.3 30220.2,17683.4 30226,17894.7C30231.4,18095.6 30371.4,18135.2 30456.5,18129.6C30554.2,18123.3 30589.8,18058.9 30695.4,18047.2C30862.4,18028.8 30929.7,18089.1 31019.3,18031.9C31089.7,17986.9 31130.3,17843.3 31124.7,17727.1C31118.6,17600.7 31062,17483.7 30974.5,17446.4C30883.2,17407.5 30783,17495.9 30694.2,17515.1Z" style="fill:none;stroke:url(#_Linear10);stroke-width:13.61px;"/>
                        </g>
                        <g transform="matrix(1.05889,0,0,0.595624,-31516.1,-10059.6)">
                            <path d="M30694.2,17515.1C30603.5,17534.6 30498.3,17426.5 30372.4,17483.7C30238.9,17544.3 30220.2,17683.4 30226,17894.7C30231.4,18095.6 30371.4,18135.2 30456.5,18129.6C30554.2,18123.3 30589.8,18058.9 30695.4,18047.2C30862.4,18028.8 30929.7,18089.1 31019.3,18031.9C31089.7,17986.9 31130.3,17843.3 31124.7,17727.1C31118.6,17600.7 31062,17483.7 30974.5,17446.4C30883.2,17407.5 30783,17495.9 30694.2,17515.1Z" style="fill:none;stroke:url(#_Linear11);stroke-width:14.34px;"/>
                        </g>
                        <g transform="matrix(1.00542,0,0,0.565548,-29876,-9524.77)">
                            <path d="M30694.2,17515.1C30603.5,17534.6 30498.3,17426.5 30372.4,17483.7C30238.9,17544.3 30220.2,17683.4 30226,17894.7C30231.4,18095.6 30371.4,18135.2 30456.5,18129.6C30554.2,18123.3 30589.8,18058.9 30695.4,18047.2C30862.4,18028.8 30929.7,18089.1 31019.3,18031.9C31089.7,17986.9 31130.3,17843.3 31124.7,17727.1C31118.6,17600.7 31062,17483.7 30974.5,17446.4C30883.2,17407.5 30783,17495.9 30694.2,17515.1Z" style="fill:none;stroke:url(#_Linear12);stroke-width:15.1px;"/>
                        </g>
                        <g transform="matrix(0.95465,0,0,0.536991,-28318.6,-9016.93)">
                            <path d="M30694.2,17515.1C30603.5,17534.6 30498.3,17426.5 30372.4,17483.7C30238.9,17544.3 30220.2,17683.4 30226,17894.7C30231.4,18095.6 30371.4,18135.2 30456.5,18129.6C30554.2,18123.3 30589.8,18058.9 30695.4,18047.2C30862.4,18028.8 30929.7,18089.1 31019.3,18031.9C31089.7,17986.9 31130.3,17843.3 31124.7,17727.1C31118.6,17600.7 31062,17483.7 30974.5,17446.4C30883.2,17407.5 30783,17495.9 30694.2,17515.1Z" style="fill:none;stroke:url(#_Linear13);stroke-width:15.9px;"/>
                        </g>
                        <g transform="matrix(0.906445,0,0,0.509875,-26839.9,-8534.73)">
                            <path d="M30694.2,17515.1C30603.5,17534.6 30498.3,17426.5 30372.4,17483.7C30238.9,17544.3 30220.2,17683.4 30226,17894.7C30231.4,18095.6 30371.4,18135.2 30456.5,18129.6C30554.2,18123.3 30589.8,18058.9 30695.4,18047.2C30862.4,18028.8 30929.7,18089.1 31019.3,18031.9C31089.7,17986.9 31130.3,17843.3 31124.7,17727.1C31118.6,17600.7 31062,17483.7 30974.5,17446.4C30883.2,17407.5 30783,17495.9 30694.2,17515.1Z" style="fill:none;stroke:url(#_Linear14);stroke-width:16.75px;"/>
                        </g>
                        <g transform="matrix(0.860674,0,0,0.484129,-25435.9,-8076.87)">
                            <path d="M30694.2,17515.1C30603.5,17534.6 30498.3,17426.5 30372.4,17483.7C30238.9,17544.3 30220.2,17683.4 30226,17894.7C30231.4,18095.6 30371.4,18135.2 30456.5,18129.6C30554.2,18123.3 30589.8,18058.9 30695.4,18047.2C30862.4,18028.8 30929.7,18089.1 31019.3,18031.9C31089.7,17986.9 31130.3,17843.3 31124.7,17727.1C31118.6,17600.7 31062,17483.7 30974.5,17446.4C30883.2,17407.5 30783,17495.9 30694.2,17515.1Z" style="fill:none;stroke:url(#_Linear15);stroke-width:17.64px;"/>
                        </g>
                        <g transform="matrix(0.817214,0,0,0.459683,-24102.8,-7642.14)">
                            <path d="M30694.2,17515.1C30603.5,17534.6 30498.3,17426.5 30372.4,17483.7C30238.9,17544.3 30220.2,17683.4 30226,17894.7C30231.4,18095.6 30371.4,18135.2 30456.5,18129.6C30554.2,18123.3 30589.8,18058.9 30695.4,18047.2C30862.4,18028.8 30929.7,18089.1 31019.3,18031.9C31089.7,17986.9 31130.3,17843.3 31124.7,17727.1C31118.6,17600.7 31062,17483.7 30974.5,17446.4C30883.2,17407.5 30783,17495.9 30694.2,17515.1Z" style="fill:none;stroke:url(#_Linear16);stroke-width:18.57px;"/>
                        </g>
                        <g transform="matrix(0.775949,0,0,0.436471,-22836.9,-7229.36)">
                            <path d="M30694.2,17515.1C30603.5,17534.6 30498.3,17426.5 30372.4,17483.7C30238.9,17544.3 30220.2,17683.4 30226,17894.7C30231.4,18095.6 30371.4,18135.2 30456.5,18129.6C30554.2,18123.3 30589.8,18058.9 30695.4,18047.2C30862.4,18028.8 30929.7,18089.1 31019.3,18031.9C31089.7,17986.9 31130.3,17843.3 31124.7,17727.1C31118.6,17600.7 31062,17483.7 30974.5,17446.4C30883.2,17407.5 30783,17495.9 30694.2,17515.1Z" style="fill:none;stroke:url(#_Linear17);stroke-width:19.56px;"/>
                        </g>
                        <g transform="matrix(0.736767,0,0,0.414431,-21635,-6837.42)">
                            <path d="M30694.2,17515.1C30603.5,17534.6 30498.3,17426.5 30372.4,17483.7C30238.9,17544.3 30220.2,17683.4 30226,17894.7C30231.4,18095.6 30371.4,18135.2 30456.5,18129.6C30554.2,18123.3 30589.8,18058.9 30695.4,18047.2C30862.4,18028.8 30929.7,18089.1 31019.3,18031.9C31089.7,17986.9 31130.3,17843.3 31124.7,17727.1C31118.6,17600.7 31062,17483.7 30974.5,17446.4C30883.2,17407.5 30783,17495.9 30694.2,17515.1Z" style="fill:none;stroke:url(#_Linear18);stroke-width:20.6px;"/>
                        </g>
                        <g transform="matrix(0.699564,0,0,0.393505,-20493.8,-6465.27)">
                            <path d="M30694.2,17515.1C30603.5,17534.6 30498.3,17426.5 30372.4,17483.7C30238.9,17544.3 30220.2,17683.4 30226,17894.7C30231.4,18095.6 30371.4,18135.2 30456.5,18129.6C30554.2,18123.3 30589.8,18058.9 30695.4,18047.2C30862.4,18028.8 30929.7,18089.1 31019.3,18031.9C31089.7,17986.9 31130.3,17843.3 31124.7,17727.1C31118.6,17600.7 31062,17483.7 30974.5,17446.4C30883.2,17407.5 30783,17495.9 30694.2,17515.1Z" style="fill:none;stroke:url(#_Linear19);stroke-width:21.7px;"/>
                        </g>
                        <g transform="matrix(0.664239,0,0,0.373635,-19410.2,-6111.91)">
                            <path d="M30694.2,17515.1C30603.5,17534.6 30498.3,17426.5 30372.4,17483.7C30238.9,17544.3 30220.2,17683.4 30226,17894.7C30231.4,18095.6 30371.4,18135.2 30456.5,18129.6C30554.2,18123.3 30589.8,18058.9 30695.4,18047.2C30862.4,18028.8 30929.7,18089.1 31019.3,18031.9C31089.7,17986.9 31130.3,17843.3 31124.7,17727.1C31118.6,17600.7 31062,17483.7 30974.5,17446.4C30883.2,17407.5 30783,17495.9 30694.2,17515.1Z" style="fill:none;stroke:url(#_Linear20);stroke-width:22.85px;"/>
                        </g>
                    </g>
                </g>
            </g>
        </g>
    </g>
    <defs>
        <linearGradient id="_Linear1" x1="0" y1="0" x2="1" y2="0" gradientUnits="userSpaceOnUse" gradientTransform="matrix(880.672,0,0,727.111,30225.1,17783.3)"><stop offset="0" style="stop-color:rgb(233,214,156);stop-opacity:1"/><stop offset="0.16" style="stop-color:rgb(219,136,64);stop-opacity:1"/><stop offset="0.33" style="stop-color:rgb(215,111,34);stop-opacity:1"/><stop offset="0.62" style="stop-color:rgb(237,246,250);stop-opacity:1"/><stop offset="1" style="stop-color:rgb(236,195,132);stop-opacity:1"/></linearGradient>
        <linearGradient id="_Linear2" x1="0" y1="0" x2="1" y2="0" gradientUnits="userSpaceOnUse" gradientTransform="matrix(880.672,0,0,727.111,30225.1,17783.3)"><stop offset="0" style="stop-color:rgb(233,214,156);stop-opacity:1"/><stop offset="0.16" style="stop-color:rgb(219,136,64);stop-opacity:1"/><stop offset="0.33" style="stop-color:rgb(215,111,34);stop-opacity:1"/><stop offset="0.62" style="stop-color:rgb(237,246,250);stop-opacity:1"/><stop offset="1" style="stop-color:rgb(236,195,132);stop-opacity:1"/></linearGradient>
        <linearGradient id="_Linear3" x1="0" y1="0" x2="1" y2="0" gradientUnits="userSpaceOnUse" gradientTransform="matrix(880.672,0,0,727.111,30225.1,17783.3)"><stop offset="0" style="stop-color:rgb(233,214,156);stop-opacity:1"/><stop offset="0.16" style="stop-color:rgb(219,136,64);stop-opacity:1"/><stop offset="0.33" style="stop-color:rgb(215,111,34);stop-opacity:1"/><stop offset="0.62" style="stop-color:rgb(237,246,250);stop-opacity:1"/><stop offset="1" style="stop-color:rgb(236,195,132);stop-opacity:1"/></linearGradient>
        <linearGradient id="_Linear4" x1="0" y1="0" x2="1" y2="0" gradientUnits="userSpaceOnUse" gradientTransform="matrix(880.672,0,0,727.111,30225.1,17783.3)"><stop offset="0" style="stop-color:rgb(233,214,156);stop-opacity:1"/><stop offset="0.16" style="stop-color:rgb(219,136,64);stop-opacity:1"/><stop offset="0.33" style="stop-color:rgb(215,111,34);stop-opacity:1"/><stop offset="0.62" style="stop-color:rgb(237,246,250);stop-opacity:1"/><stop offset="1" style="stop-color:rgb(236,195,132);stop-opacity:1"/></linearGradient>
        <linearGradient id="_Linear5" x1="0" y1="0" x2="1" y2="0" gradientUnits="userSpaceOnUse" gradientTransform="matrix(880.672,0,0,727.111,30225.1,17783.3)"><stop offset="0" style="stop-color:rgb(233,214,156);stop-opacity:1"/><stop offset="0.16" style="stop-color:rgb(219,136,64);stop-opacity:1"/><stop offset="0.33" style="stop-color:rgb(215,111,34);stop-opacity:1"/><stop offset="0.62" style="stop-color:rgb(237,246,250);stop-opacity:1"/><stop offset="1" style="stop-color:rgb(236,195,132);stop-opacity:1"/></linearGradient>
        <linearGradient id="_Linear6" x1="0" y1="0" x2="1" y2="0" gradientUnits="userSpaceOnUse" gradientTransform="matrix(880.672,0,0,727.111,30225.1,17783.3)"><stop offset="0" style="stop-color:rgb(233,214,156);stop-opacity:1"/><stop offset="0.16" style="stop-color:rgb(219,136,64);stop-opacity:1"/><stop offset="0.33" style="stop-color:rgb(215,111,34);stop-opacity:1"/><stop offset="0.62" style="stop-color:rgb(237,246,250);stop-opacity:1"/><stop offset="1" style="stop-color:rgb(236,195,132);stop-opacity:1"/></linearGradient>
        <linearGradient id="_Linear7" x1="0" y1="0" x2="1" y2="0" gradientUnits="userSpaceOnUse" gradientTransform="matrix(880.672,0,0,727.111,30225.1,17783.3)"><stop offset="0" style="stop-color:rgb(233,214,156);stop-opacity:1"/><stop offset="0.16" style="stop-color:rgb(219,136,64);stop-opacity:1"/><stop offset="0.33" style="stop-color:rgb(215,111,34);stop-opacity:1"/><stop offset="0.62" style="stop-color:rgb(237,246,250);stop-opacity:1"/><stop offset="1" style="stop-color:rgb(236,195,132);stop-opacity:1"/></linearGradient>
        <linearGradient id="_Linear8" x1="0" y1="0" x2="1" y2="0" gradientUnits="userSpaceOnUse" gradientTransform="matrix(880.672,0,0,727.111,30225.1,17783.3)"><stop offset="0" style="stop-color:rgb(233,214,156);stop-opacity:1"/><stop offset="0.16" style="stop-color:rgb(219,136,64);stop-opacity:1"/><stop offset="0.33" style="stop-color:rgb(215,111,34);stop-opacity:1"/><stop offset="0.62" style="stop-color:rgb(237,246,250);stop-opacity:1"/><stop offset="1" style="stop-color:rgb(236,195,132);stop-opacity:1"/></linearGradient>
        <linearGradient id="_Linear9" x1="0" y1="0" x2="1" y2="0" gradientUnits="userSpaceOnUse" gradientTransform="matrix(880.672,0,0,727.111,30225.1,17783.3)"><stop offset="0" style="stop-color:rgb(233,214,156);stop-opacity:1"/><stop offset="0.16" style="stop-color:rgb(219,136,64);stop-opacity:1"/><stop offset="0.33" style="stop-color:rgb(215,111,34);stop-opacity:1"/><stop offset="0.62" style="stop-color:rgb(237,246,250);stop-opacity:1"/><stop offset="1" style="stop-color:rgb(236,195,132);stop-opacity:1"/></linearGradient>
        <linearGradient id="_Linear10" x1="0" y1="0" x2="1" y2="0" gradientUnits="userSpaceOnUse" gradientTransform="matrix(880.672,0,0,727.111,30225.1,17783.3)"><stop offset="0" style="stop-color:rgb(233,214,156);stop-opacity:1"/><stop offset="0.16" style="stop-color:rgb(219,136,64);stop-opacity:1"/><stop offset="0.33" style="stop-color:rgb(215,111,34);stop-opacity:1"/><stop offset="0.62" style="stop-color:rgb(237,246,250);stop-opacity:1"/><stop offset="1" style="stop-color:rgb(236,195,132);stop-opacity:1"/></linearGradient>
        <linearGradient id="_Linear11" x1="0" y1="0" x2="1" y2="0" gradientUnits="userSpaceOnUse" gradientTransform="matrix(880.672,0,0,727.111,30225.1,17783.3)"><stop offset="0" style="stop-color:rgb(233,214,156);stop-opacity:1"/><stop offset="0.16" style="stop-color:rgb(219,136,64);stop-opacity:1"/><stop offset="0.33" style="stop-color:rgb(215,111,34);stop-opacity:1"/><stop offset="0.62" style="stop-color:rgb(237,246,250);stop-opacity:1"/><stop offset="1" style="stop-color:rgb(236,195,132);stop-opacity:1"/></linearGradient>
        <linearGradient id="_Linear12" x1="0" y1="0" x2="1" y2="0" gradientUnits="userSpaceOnUse" gradientTransform="matrix(880.672,0,0,727.111,30225.1,17783.3)"><stop offset="0" style="stop-color:rgb(233,214,156);stop-opacity:1"/><stop offset="0.16" style="stop-color:rgb(219,136,64);stop-opacity:1"/><stop offset="0.33" style="stop-color:rgb(215,111,34);stop-opacity:1"/><stop offset="0.62" style="stop-color:rgb(237,246,250);stop-opacity:1"/><stop offset="1" style="stop-color:rgb(236,195,132);stop-opacity:1"/></linearGradient>
        <linearGradient id="_Linear13" x1="0" y1="0" x2="1" y2="0" gradientUnits="userSpaceOnUse" gradientTransform="matrix(880.672,0,0,727.111,30225.1,17783.3)"><stop offset="0" style="stop-color:rgb(233,214,156);stop-opacity:1"/><stop offset="0.16" style="stop-color:rgb(219,136,64);stop-opacity:1"/><stop offset="0.33" style="stop-color:rgb(215,111,34);stop-opacity:1"/><stop offset="0.62" style="stop-color:rgb(237,246,250);stop-opacity:1"/><stop offset="1" style="stop-color:rgb(236,195,132);stop-opacity:1"/></linearGradient>
        <linearGradient id="_Linear14" x1="0" y1="0" x2="1" y2="0" gradientUnits="userSpaceOnUse" gradientTransform="matrix(880.672,0,0,727.111,30225.1,17783.3)"><stop offset="0" style="stop-color:rgb(233,214,156);stop-opacity:1"/><stop offset="0.16" style="stop-color:rgb(219,136,64);stop-opacity:1"/><stop offset="0.33" style="stop-color:rgb(215,111,34);stop-opacity:1"/><stop offset="0.62" style="stop-color:rgb(237,246,250);stop-opacity:1"/><stop offset="1" style="stop-color:rgb(236,195,132);stop-opacity:1"/></linearGradient>
        <linearGradient id="_Linear15" x1="0" y1="0" x2="1" y2="0" gradientUnits="userSpaceOnUse" gradientTransform="matrix(880.672,0,0,727.111,30225.1,17783.3)"><stop offset="0" style="stop-color:rgb(233,214,156);stop-opacity:1"/><stop offset="0.16" style="stop-color:rgb(219,136,64);stop-opacity:1"/><stop offset="0.33" style="stop-color:rgb(215,111,34);stop-opacity:1"/><stop offset="0.62" style="stop-color:rgb(237,246,250);stop-opacity:1"/><stop offset="1" style="stop-color:rgb(236,195,132);stop-opacity:1"/></linearGradient>
        <linearGradient id="_Linear16" x1="0" y1="0" x2="1" y2="0" gradientUnits="userSpaceOnUse" gradientTransform="matrix(880.672,0,0,727.111,30225.1,17783.3)"><stop offset="0" style="stop-color:rgb(233,214,156);stop-opacity:1"/><stop offset="0.16" style="stop-color:rgb(219,136,64);stop-opacity:1"/><stop offset="0.33" style="stop-color:rgb(215,111,34);stop-opacity:1"/><stop offset="0.62" style="stop-color:rgb(237,246,250);stop-opacity:1"/><stop offset="1" style="stop-color:rgb(236,195,132);stop-opacity:1"/></linearGradient>
        <linearGradient id="_Linear17" x1="0" y1="0" x2="1" y2="0" gradientUnits="userSpaceOnUse" gradientTransform="matrix(880.672,0,0,727.111,30225.1,17783.3)"><stop offset="0" style="stop-color:rgb(233,214,156);stop-opacity:1"/><stop offset="0.16" style="stop-color:rgb(219,136,64);stop-opacity:1"/><stop offset="0.33" style="stop-color:rgb(215,111,34);stop-opacity:1"/><stop offset="0.62" style="stop-color:rgb(237,246,250);stop-opacity:1"/><stop offset="1" style="stop-color:rgb(236,195,132);stop-opacity:1"/></linearGradient>
        <linearGradient id="_Linear18" x1="0" y1="0" x2="1" y2="0" gradientUnits="userSpaceOnUse" gradientTransform="matrix(880.672,0,0,727.111,30225.1,17783.3)"><stop offset="0" style="stop-color:rgb(233,214,156);stop-opacity:1"/><stop offset="0.16" style="stop-color:rgb(219,136,64);stop-opacity:1"/><stop offset="0.33" style="stop-color:rgb(215,111,34);stop-opacity:1"/><stop offset="0.62" style="stop-color:rgb(237,246,250);stop-opacity:1"/><stop offset="1" style="stop-color:rgb(236,195,132);stop-opacity:1"/></linearGradient>
        <linearGradient id="_Linear19" x1="0" y1="0" x2="1" y2="0" gradientUnits="userSpaceOnUse" gradientTransform="matrix(880.672,0,0,727.111,30225.1,17783.3)"><stop offset="0" style="stop-color:rgb(233,214,156);stop-opacity:1"/><stop offset="0.16" style="stop-color:rgb(219,136,64);stop-opacity:1"/><stop offset="0.33" style="stop-color:rgb(215,111,34);stop-opacity:1"/><stop offset="0.62" style="stop-color:rgb(237,246,250);stop-opacity:1"/><stop offset="1" style="stop-color:rgb(236,195,132);stop-opacity:1"/></linearGradient>
        <linearGradient id="_Linear20" x1="0" y1="0" x2="1" y2="0" gradientUnits="userSpaceOnUse" gradientTransform="matrix(880.672,0,0,727.111,30225.1,17783.3)"><stop offset="0" style="stop-color:rgb(233,214,156);stop-opacity:1"/><stop offset="0.16" style="stop-color:rgb(219,136,64);stop-opacity:1"/><stop offset="0.33" style="stop-color:rgb(215,111,34);stop-opacity:1"/><stop offset="0.62" style="stop-color:rgb(237,246,250);stop-opacity:1"/><stop offset="1" style="stop-color:rgb(236,195,132);stop-opacity:1"/></linearGradient>
    </defs>
</svg>
